<svg width="160" height="28" viewBox="0 0 160 28" fill="none" xmlns="http://www.w3.org/2000/svg">
<path d="M154.169 22.1984C152.942 22.1984 151.918 21.9127 151.095 21.3413C150.272 20.7699 149.651 19.9928 149.232 19.01C148.821 18.0272 148.615 16.9187 148.615 15.6845C148.615 14.4502 148.821 13.3417 149.232 12.3589C149.644 11.3761 150.249 10.599 151.049 10.0276C151.849 9.45623 152.836 9.17053 154.009 9.17053C155.19 9.17053 156.218 9.45242 157.095 10.0162C157.971 10.58 158.649 11.3533 159.129 12.3361C159.616 13.3113 159.86 14.4274 159.86 15.6845C159.86 16.9187 159.62 18.0272 159.14 19.01C158.668 19.9928 158.005 20.7699 157.152 21.3413C156.298 21.9127 155.304 22.1984 154.169 22.1984ZM148.089 27.341V9.51337H150.832V17.9701H151.221V27.341H148.089ZM153.666 19.4328C154.337 19.4328 154.885 19.2652 155.312 18.93C155.738 18.5948 156.055 18.1453 156.26 17.5815C156.466 17.0101 156.569 16.3778 156.569 15.6845C156.569 14.9988 156.462 14.3741 156.249 13.8103C156.036 13.2389 155.704 12.7856 155.255 12.4504C154.813 12.1075 154.245 11.9361 153.552 11.9361C152.904 11.9361 152.379 12.0923 151.975 12.4046C151.579 12.717 151.289 13.1551 151.106 13.7189C150.923 14.2826 150.832 14.9378 150.832 15.6845C150.832 16.4311 150.923 17.0863 151.106 17.6501C151.289 18.2138 151.586 18.6519 151.998 18.9643C152.417 19.2766 152.973 19.4328 153.666 19.4328Z" fill="white"/>
<path d="M140.479 22.1984C139.238 22.1984 138.148 21.9203 137.211 21.3642C136.274 20.808 135.543 20.0423 135.017 19.0671C134.499 18.0843 134.24 16.9568 134.24 15.6845C134.24 14.3969 134.506 13.2655 135.04 12.2904C135.573 11.3076 136.308 10.5419 137.245 9.99334C138.182 9.4448 139.26 9.17053 140.479 9.17053C141.721 9.17053 142.811 9.44861 143.748 10.0048C144.693 10.5609 145.428 11.3304 145.953 12.3132C146.479 13.2884 146.742 14.4122 146.742 15.6845C146.742 16.9644 146.475 18.0958 145.942 19.0786C145.416 20.0537 144.681 20.8194 143.736 21.3756C142.799 21.9241 141.714 22.1984 140.479 22.1984ZM140.479 19.2957C141.477 19.2957 142.22 18.9605 142.708 18.29C143.203 17.612 143.451 16.7435 143.451 15.6845C143.451 14.5874 143.199 13.7112 142.696 13.056C142.201 12.4008 141.462 12.0732 140.479 12.0732C139.801 12.0732 139.245 12.2256 138.811 12.5303C138.377 12.8351 138.053 13.2579 137.84 13.7989C137.634 14.3398 137.531 14.9683 137.531 15.6845C137.531 16.7892 137.779 17.6691 138.274 18.3243C138.777 18.9719 139.512 19.2957 140.479 19.2957Z" fill="white"/>
<path d="M129.949 21.8555V16.0272C129.949 15.7453 129.933 15.3873 129.903 14.953C129.873 14.5111 129.777 14.0692 129.617 13.6274C129.457 13.1855 129.194 12.816 128.829 12.5188C128.471 12.2217 127.96 12.0732 127.297 12.0732C127.031 12.0732 126.745 12.1151 126.44 12.1989C126.136 12.2827 125.85 12.4465 125.583 12.6903C125.317 12.9264 125.096 13.2769 124.92 13.7416C124.753 14.2064 124.669 14.8235 124.669 15.593L122.886 14.7473C122.886 13.7721 123.084 12.8579 123.481 12.0046C123.877 11.1513 124.471 10.4618 125.263 9.93613C126.063 9.41044 127.069 9.1476 128.28 9.1476C129.248 9.1476 130.036 9.3114 130.646 9.639C131.255 9.9666 131.728 10.3818 132.063 10.8846C132.406 11.3875 132.65 11.9132 132.794 12.4617C132.939 13.0026 133.027 13.4978 133.057 13.9473C133.088 14.3968 133.103 14.7244 133.103 14.9301V21.8555H129.949ZM121.515 21.8555V5.39923H124.28V13.8559H124.669V21.8555H121.515Z" fill="white"/>
<path d="M113.563 22.1984C112.344 22.1984 111.243 21.9851 110.261 21.5584C109.286 21.1242 108.482 20.5071 107.849 19.7071C107.225 18.8995 106.828 17.9396 106.661 16.8273L109.906 16.3473C110.135 17.292 110.607 18.0196 111.323 18.53C112.04 19.0405 112.855 19.2957 113.769 19.2957C114.28 19.2957 114.775 19.2157 115.255 19.0557C115.735 18.8957 116.127 18.6596 116.432 18.3472C116.744 18.0348 116.9 17.6501 116.9 17.193C116.9 17.0254 116.874 16.8654 116.82 16.713C116.775 16.553 116.695 16.4044 116.58 16.2673C116.466 16.1302 116.302 16.0006 116.089 15.8788C115.883 15.7569 115.62 15.6464 115.3 15.5473L111.026 14.2903C110.706 14.1988 110.333 14.0693 109.906 13.9017C109.487 13.7341 109.08 13.4941 108.684 13.1818C108.287 12.8694 107.956 12.458 107.689 11.9475C107.43 11.4295 107.301 10.7781 107.301 9.99336C107.301 8.88866 107.579 7.97061 108.135 7.23922C108.691 6.50783 109.434 5.9631 110.364 5.60503C111.293 5.24695 112.322 5.07172 113.449 5.07934C114.584 5.09458 115.598 5.28885 116.489 5.66217C117.38 6.03548 118.127 6.58021 118.729 7.29636C119.331 8.00489 119.765 8.87342 120.032 9.90194L116.672 10.4733C116.55 9.94003 116.325 9.49053 115.998 9.12483C115.67 8.75914 115.278 8.48106 114.82 8.29059C114.371 8.10013 113.899 7.99728 113.403 7.98204C112.916 7.9668 112.455 8.03537 112.021 8.18774C111.594 8.3325 111.243 8.54582 110.969 8.82771C110.703 9.1096 110.569 9.44482 110.569 9.83337C110.569 10.1914 110.68 10.4848 110.901 10.7133C111.122 10.9343 111.4 11.1133 111.735 11.2504C112.07 11.3876 112.413 11.5018 112.763 11.5933L115.62 12.3704C116.047 12.4847 116.519 12.637 117.037 12.8275C117.556 13.0103 118.051 13.2694 118.523 13.6046C119.003 13.9322 119.395 14.3665 119.7 14.9074C120.013 15.4483 120.169 16.134 120.169 16.9644C120.169 17.8482 119.982 18.6215 119.609 19.2843C119.243 19.9395 118.748 20.4842 118.123 20.9185C117.498 21.3451 116.79 21.6651 115.998 21.8784C115.213 22.0917 114.401 22.1984 113.563 22.1984Z" fill="white"/>
<path d="M68.1131 21.5353V15.7071C68.1131 15.4252 68.0979 15.0671 68.0674 14.6329C68.037 14.191 67.9417 13.7491 67.7817 13.3072C67.6217 12.8653 67.3589 12.4958 66.9932 12.1987C66.6351 11.9016 66.1247 11.753 65.4619 11.753C65.1952 11.753 64.9095 11.7949 64.6048 11.8787C64.3 11.9625 64.0143 12.1263 63.7477 12.3701C63.481 12.6063 63.2601 12.9568 63.0848 13.4215C62.9172 13.8862 62.8334 14.5033 62.8334 15.2728L61.0507 14.4272C61.0507 13.452 61.2488 12.5377 61.6449 11.6845C62.0411 10.8312 62.6354 10.1417 63.4277 9.616C64.2276 9.09031 65.2333 8.82747 66.4447 8.82747C67.4122 8.82747 68.2008 8.99127 68.8102 9.31887C69.4197 9.64647 69.8921 10.0617 70.2273 10.5645C70.5702 11.0673 70.814 11.593 70.9587 12.1416C71.1035 12.6825 71.1911 13.1777 71.2215 13.6272C71.252 14.0767 71.2673 14.4043 71.2673 14.61V21.5353H68.1131ZM59.6793 21.5353V5.0791H62.4449V13.5358H62.8334V21.5353H59.6793Z" fill="white"/>
<path d="M52.6675 22.1984C51.3876 22.1984 50.2905 21.9127 49.3762 21.3413C48.462 20.7699 47.7611 19.9928 47.2735 19.01C46.7859 18.0272 46.5421 16.9187 46.5421 15.6845C46.5421 14.435 46.7935 13.3189 47.2964 12.3361C47.8068 11.3533 48.523 10.58 49.4448 10.0162C50.3667 9.45242 51.4561 9.17053 52.7132 9.17053C54.1684 9.17053 55.3873 9.54003 56.3701 10.279C57.3606 11.0104 57.9929 12.0123 58.2672 13.2846L55.1588 14.1074C54.9759 13.4674 54.656 12.9684 54.1988 12.6103C53.7493 12.2523 53.2389 12.0732 52.6675 12.0732C52.0123 12.0732 51.4752 12.2332 51.0562 12.5532C50.6371 12.8656 50.3286 13.296 50.1305 13.8446C49.9324 14.3855 49.8334 14.9988 49.8334 15.6845C49.8334 16.7587 50.0695 17.631 50.5419 18.3015C51.0219 18.9643 51.7304 19.2957 52.6675 19.2957C53.3684 19.2957 53.9017 19.1357 54.2674 18.8157C54.6331 18.4957 54.9074 18.0386 55.0902 17.4444L58.2672 18.1072C57.9167 19.4176 57.2539 20.4271 56.2787 21.1356C55.3035 21.8441 54.0998 22.1984 52.6675 22.1984Z" fill="white"/>
<path d="M46.2898 21.8555C45.4366 22.0155 44.5985 22.0841 43.7757 22.0612C42.9605 22.046 42.2291 21.9051 41.5815 21.6384C40.9416 21.3641 40.454 20.9261 40.1188 20.3242C39.814 19.7604 39.654 19.189 39.6388 18.61C39.6235 18.0234 39.6159 17.3605 39.6159 16.6215V6.08496H42.7243V16.4387C42.7243 16.9187 42.7281 17.3529 42.7358 17.7415C42.751 18.1224 42.831 18.4271 42.9757 18.6557C43.25 19.09 43.6881 19.3261 44.29 19.3642C44.8918 19.4023 45.5585 19.3719 46.2898 19.2728V21.8555ZM37.5132 11.9132V9.51335H46.2898V11.9132H37.5132Z" fill="white"/>
<path d="M31.8587 22.1984C30.594 22.1984 29.4778 21.9279 28.5103 21.387C27.5503 20.8385 26.7961 20.088 26.2475 19.1357C25.7066 18.1758 25.4362 17.0787 25.4362 15.8445C25.4362 14.496 25.7028 13.3227 26.2361 12.3246C26.7694 11.3266 27.5046 10.5533 28.4417 10.0048C29.3788 9.44861 30.4568 9.17053 31.6758 9.17053C32.971 9.17053 34.0719 9.47528 34.9785 10.0848C35.8851 10.6943 36.5556 11.5514 36.9898 12.6561C37.4241 13.7608 37.5764 15.0597 37.4469 16.553H34.3728V15.4102C34.3728 14.1531 34.1709 13.2503 33.7671 12.7018C33.371 12.1456 32.7196 11.8675 31.813 11.8675C30.754 11.8675 29.9731 12.1913 29.4702 12.8389C28.975 13.4789 28.7274 14.4274 28.7274 15.6845C28.7274 16.8349 28.975 17.7263 29.4702 18.3586C29.9731 18.9833 30.7083 19.2957 31.6758 19.2957C32.2853 19.2957 32.8072 19.1624 33.2414 18.8957C33.6757 18.6291 34.0071 18.2443 34.2357 17.7415L37.3441 18.6329C36.8793 19.7604 36.1441 20.6366 35.1385 21.2613C34.1404 21.886 33.0472 22.1984 31.8587 22.1984ZM27.7675 16.553V14.2445H35.9499V16.553H27.7675Z" fill="white"/>
<path d="M14.8541 21.8555L14.877 5.39923H18.0311V15.4558L22.2137 9.51329H26.0535L21.5966 15.6844L26.3506 21.8555H22.3051L18.0311 15.9129V21.8555H14.8541Z" fill="white"/>
<path d="M6.90248 22.1984C5.6835 22.1984 4.58261 21.9851 3.5998 21.5584C2.62462 21.1242 1.82085 20.5071 1.18851 19.7071C0.563779 18.8995 0.16761 17.9396 0 16.8273L3.24554 16.3473C3.4741 17.292 3.94645 18.0196 4.6626 18.53C5.37875 19.0405 6.19395 19.2957 7.10818 19.2957C7.61863 19.2957 8.11384 19.2157 8.59382 19.0557C9.07379 18.8957 9.46615 18.6596 9.7709 18.3472C10.0833 18.0348 10.2394 17.6501 10.2394 17.193C10.2394 17.0254 10.2128 16.8654 10.1594 16.713C10.1137 16.553 10.0337 16.4044 9.91946 16.2673C9.80518 16.1302 9.64138 16.0006 9.42806 15.8788C9.22235 15.7569 8.95951 15.6464 8.63953 15.5473L4.36548 14.2903C4.04549 14.1988 3.67218 14.0693 3.24554 13.9017C2.82651 13.7341 2.41892 13.4941 2.02275 13.1818C1.62658 12.8694 1.29517 12.458 1.02852 11.9475C0.769482 11.4295 0.639965 10.7781 0.639965 9.99336C0.639965 8.88866 0.918045 7.97061 1.47421 7.23922C2.03037 6.50783 2.77318 5.9631 3.70266 5.60503C4.63213 5.24695 5.66064 5.07172 6.7882 5.07934C7.92338 5.09458 8.93666 5.28885 9.82804 5.66217C10.7194 6.03548 11.466 6.58021 12.0679 7.29636C12.6698 8.00489 13.104 8.87342 13.3707 9.90194L10.0109 10.4733C9.88898 9.94003 9.66424 9.49053 9.33663 9.12483C9.00903 8.75914 8.61667 8.48106 8.15956 8.29059C7.71006 8.10013 7.2377 7.99728 6.74249 7.98204C6.2549 7.9668 5.79397 8.03537 5.35971 8.18774C4.93306 8.3325 4.58261 8.54582 4.30834 8.82771C4.04168 9.1096 3.90836 9.44482 3.90836 9.83337C3.90836 10.1914 4.01883 10.4848 4.23977 10.7133C4.46071 10.9343 4.73879 11.1133 5.07401 11.2504C5.40923 11.3876 5.75207 11.5018 6.10252 11.5933L8.95951 12.3704C9.38615 12.4847 9.85851 12.637 10.3766 12.8275C10.8946 13.0103 11.3899 13.2694 11.8622 13.6046C12.3422 13.9322 12.7345 14.3665 13.0393 14.9074C13.3517 15.4483 13.5078 16.134 13.5078 16.9644C13.5078 17.8482 13.3212 18.6215 12.9479 19.2843C12.5822 19.9395 12.087 20.4842 11.4622 20.9185C10.8375 21.3451 10.129 21.6651 9.33663 21.8784C8.55191 22.0917 7.74053 22.1984 6.90248 22.1984Z" fill="white"/>
<path d="M88.884 10.1582H91.4235V25.3954H88.884V10.1582ZM91.4235 10.1582H93.9631V12.6977H91.4235V10.1582ZM93.9631 12.6977H96.5026V15.2373H93.9631V12.6977ZM96.5026 15.2373H99.0422V17.7768H96.5026V15.2373ZM99.0422 17.7768H101.582V20.3164H99.0422V17.7768ZM91.4235 22.8559H93.9631V25.3954H91.4235V22.8559ZM93.9631 20.3164H101.582V22.8559H93.9631V20.3164ZM78.7258 16.507H82.5351V19.0466H78.7258V16.507ZM95.2329 0H99.0422V2.53954H95.2329V0ZM82.5351 19.0466H85.0747V22.8559H82.5351V19.0466ZM99.0422 2.53954H101.582V6.34886H99.0422V2.53954ZM76.1863 19.0466H78.7258V22.8559H76.1863V19.0466ZM92.6933 2.53954H95.2329V6.34886H92.6933V2.53954ZM78.7258 22.8559H82.5351V25.3954H78.7258V22.8559ZM95.2329 6.34886H99.0422V8.8884H95.2329V6.34886ZM78.7258 7.61863H81.2654V13.9675H78.7258V7.61863ZM81.2654 5.07909H83.8049V7.61863H81.2654V5.07909ZM83.8049 2.53954H90.1538V5.07909H83.8049V2.53954Z" fill="#8354E0"/>
</svg>
